Coordinates
version=1
nRows=17
nColumns=38
inDegrees=no

Units are S.I. units (second, meters, Newtons, ...)
If the header above contains a line with 'inDegrees', this indicates whether rotational values are in degrees (yes) or radians (no).

endheader
time	pelvis_tilt	pelvis_list	pelvis_rotation	pelvis_tx	pelvis_ty	pelvis_tz	hip_flexion_r	hip_adduction_r	hip_rotation_r	knee_angle_r	ankle_angle_r	subtalar_angle_r	mtp_angle_r	hip_flexion_l	hip_adduction_l	hip_rotation_l	knee_angle_l	ankle_angle_l	subtalar_angle_l	mtp_angle_l	lumbar_extension	lumbar_bending	lumbar_rotation	arm_flex_r	arm_add_r	arm_rot_r	elbow_flex_r	pro_sup_r	wrist_flex_r	wrist_dev_r	arm_flex_l	arm_add_l	arm_rot_l	elbow_flex_l	pro_sup_l	wrist_flex_l	wrist_dev_l
0	3.02294	1.35205	-1.48791	0.659197	0.317516	0.939304	-0.311846	-0.0742584	-0.307044	0	-0.0661432	0	0	-0.327579	-0.0671941	-0.311828	0	-0.0454441	0	0	-0.312202	-0.012257	0.0865624	0.0244431	-0.248315	0.431725	0.429532	1.2251	0	0	0.00729741	-0.221027	0.203711	0.571519	1.49507	0	0
0.01	3.02391	1.3518	-1.48912	0.659175	0.317454	0.939316	-0.311962	-0.074578	-0.306772	0	-0.0665166	0	0	-0.327751	-0.067091	-0.313829	0	-0.0421006	0	0	-0.311943	-0.0125718	0.0871317	0.0235583	-0.249644	0.439251	0.431866	1.20247	0	0	0.00648021	-0.224692	0.225127	0.57529	1.43091	0	0
0.02	3.02431	1.3517	-1.48949	0.659181	0.317301	0.939329	-0.311867	-0.0746768	-0.306757	0	-0.0665339	0	0	-0.327669	-0.0670014	-0.313545	0	-0.0426976	0	0	-0.311689	-0.0126907	0.0874562	0.0229182	-0.250919	0.448666	0.433426	1.17536	0	0	0.00583733	-0.22871	0.249141	0.57968	1.34812	0	0
0.03	3.02387	1.35315	-1.48871	0.659189	0.317164	0.939203	-0.310059	-0.0745856	-0.307685	0	-0.0660611	0	0	-0.325808	-0.0670652	-0.312184	0	-0.0442811	0	0	-0.309844	-0.01266	0.0871682	0.0223872	-0.25048	0.451619	0.43358	1.13716	0	0	0.00375233	-0.231976	0.268101	0.586973	1.23904	0	0
0.04	3.03173	1.37302	-1.49015	0.659055	0.317955	0.937293	-0.289193	-0.075937	-0.331784	0	-0.0551272	0	0	-0.302969	-0.0659649	-0.306706	0	-0.037008	0	0	-0.287241	-0.0157441	0.0777111	0.0191129	-0.238908	0.411927	0.42846	1.06959	0	0	-0.0152932	-0.234078	0.243335	0.624966	1.08862	0	0
0.05	3.025	1.3519	-1.48994	0.659142	0.316965	0.939281	-0.311142	-0.0747812	-0.30807	0	-0.0661791	0	0	-0.326925	-0.0669368	-0.313646	0	-0.0413398	0	0	-0.310686	-0.0127421	0.0872839	0.0216204	-0.250429	0.451001	0.433754	1.13639	0	0	0.00308454	-0.231433	0.266597	0.587597	1.23884	0	0
0.06	3.02416	1.35067	-1.48964	0.659129	0.316876	0.939412	-0.312127	-0.0747494	-0.30674	0	-0.0669495	0	0	-0.328132	-0.0669276	-0.314409	0	-0.0410293	0	0	-0.312941	-0.0123143	0.0868978	0.0235693	-0.241777	0.391546	0.420528	1.31196	0	0	0.00607085	-0.211454	0.161073	0.564132	1.5708	0	0
0.07	3.02401	1.35052	-1.48967	0.65912	0.316642	0.939466	-0.312042	-0.0747711	-0.306474	0	-0.0672425	0	0	-0.328134	-0.0669138	-0.314619	0	-0.0409645	0	0	-0.312991	-0.012176	0.0870632	0.0234772	-0.241797	0.391861	0.420203	1.31275	0	0	0.00556364	-0.211549	0.161089	0.563675	1.5708	0	0
0.08	3.02499	1.34999	-1.49077	0.659076	0.316616	0.93951	-0.312394	-0.0749938	-0.306514	0	-0.067364	0	0	-0.328487	-0.0666881	-0.314928	0	-0.0406264	0	0	-0.313409	-0.0122773	0.0871129	0.0233321	-0.241878	0.391742	0.420152	1.31284	0	0	0.00510608	-0.211664	0.160452	0.563271	1.5708	0	0
0.09	3.0261	1.34953	-1.4917	0.659015	0.316481	0.939574	-0.312811	-0.0752561	-0.306947	0	-0.0673711	0	0	-0.328761	-0.0664563	-0.314973	0	-0.0402707	0	0	-0.313729	-0.0123242	0.0868754	0.02308	-0.242022	0.391427	0.420244	1.31252	0	0	0.00472861	-0.211592	0.159299	0.563272	1.5708	0	0
0.1	3.02638	1.34942	-1.4919	0.658978	0.316355	0.939595	-0.312738	-0.0753553	-0.306948	0	-0.0673361	0	0	-0.328583	-0.0663924	-0.314942	0	-0.0400173	0	0	-0.313707	-0.0122584	0.0867313	0.0229627	-0.242092	0.391231	0.420067	1.31208	0	0	0.00441196	-0.211517	0.158566	0.563323	1.5708	0	0
0.11	3.02646	1.34943	-1.4922	0.658995	0.316233	0.939611	-0.31237	-0.0754636	-0.306649	0	-0.0676501	0	0	-0.328244	-0.0662765	-0.314932	0	-0.0398962	0	0	-0.31369	-0.0122524	0.0868795	0.0228898	-0.242249	0.391299	0.420104	1.31156	0	0	0.00441902	-0.211439	0.157382	0.562962	1.5708	0	0
0.12	3.02651	1.34934	-1.4924	0.658907	0.316116	0.939636	-0.312223	-0.0754994	-0.306635	0	-0.0678967	0	0	-0.328087	-0.0662549	-0.314973	0	-0.039818	0	0	-0.313662	-0.0122195	0.0869632	0.022586	-0.242394	0.391461	0.420503	1.31074	0	0	0.00417917	-0.211577	0.156204	0.562887	1.5708	0	0
0.13	3.02593	1.34936	-1.49182	0.658914	0.31604	0.939638	-0.312003	-0.0753974	-0.306932	0	-0.0679805	0	0	-0.327816	-0.0663969	-0.315182	0	-0.039565	0	0	-0.313404	-0.0120156	0.0870161	0.0221609	-0.242562	0.391268	0.421254	1.31002	0	0	0.00387614	-0.21189	0.155264	0.563092	1.5708	0	0
0.14	3.00998	1.35232	-1.47323	0.659766	0.315245	0.939323	-0.307222	-0.0699661	-0.308039	0	-0.0689153	0	0	-0.322164	-0.0711002	-0.323516	0	-0.0418452	0	0	-0.311698	-0.00939036	0.0850364	0.0240632	-0.240829	0.391353	0.420397	1.30952	0	0	0.00512862	-0.214192	0.155244	0.563606	1.5708	0	0
0.15	3.02535	1.34899	-1.49189	0.659011	0.315661	0.939731	-0.311737	-0.0753497	-0.306436	0	-0.0685522	0	0	-0.327735	-0.0663951	-0.315644	0	-0.0389126	0	0	-0.313669	-0.0119807	0.0875202	0.0218597	-0.244234	0.399081	0.423035	1.29305	0	0	0.00326716	-0.212976	0.154943	0.562655	1.5708	0	0
0.16	3.02543	1.34855	-1.49252	0.659084	0.315482	0.939788	-0.311906	-0.0754435	-0.305772	0	-0.068885	0	0	-0.32805	-0.0662842	-0.315705	0	-0.0387734	0	0	-0.314174	-0.0120665	0.088012	0.0217664	-0.244261	0.397525	0.423228	1.29608	0	0	0.00310675	-0.213611	0.154956	0.562661	1.5708	0	0
